<svg xmlns="http://www.w3.org/2000/svg" viewBox="0 0 114.72 125.15"><defs><style>.cls-1{fill:#414141;}.cls-2{fill:#fff;}</style></defs><g id="Layer_2" data-name="Layer 2"><g id="_ÎÓÈ_1" data-name="—ÎÓÈ_1"><path class="cls-1" d="M64.15,66.52a1.57,1.57,0,0,0-.41-2.11h0c-.63-.28-1.45.21-1.84,1.1,0,0-8.58,18.43-12.52,27.32-4.19,9.46-11.84,27.63-11.84,27.63a1.4,1.4,0,0,0,.54,2h0c.62.28,1.32-.06,1.71-.94Z"/><path class="cls-1" d="M45.34,123a.53.53,0,0,0-.21-.64L39.69,120c-.16-.08-.39.07-.5.32h0c-.11.25-.06.51.1.58l5.44,2.44a.51.51,0,0,0,.61-.26Z"/><path class="cls-1" d="M44.21,124.73a.52.52,0,0,0-.2-.64l-7.44-3.3c-.16-.08-.39.07-.5.33h0c-.12.25-.08.52.09.59L43.6,125a.51.51,0,0,0,.61-.28Z"/><path class="cls-1" d="M46.25,121.38a.56.56,0,0,0-.22-.66l-5.56-2.49c-.17-.08-.4.07-.52.32h0c-.11.25-.06.53.11.6l5.56,2.5a.55.55,0,0,0,.63-.27Z"/><path class="cls-1" d="M47.28,119.79a.53.53,0,0,0-.22-.65l-5.68-2.56c-.18-.08-.41.07-.52.32h0c-.12.26-.07.53.11.61l5.68,2.55a.53.53,0,0,0,.63-.27Z"/><path class="cls-1" d="M48.43,118.25a.54.54,0,0,0-.26-.65l-6-2.71a.44.44,0,0,0-.53.3h0a.45.45,0,0,0,.13.6l6,2.7a.55.55,0,0,0,.66-.24Z"/><path class="cls-1" d="M49.45,116.62a.56.56,0,0,0-.28-.65l-6.25-2.81a.45.45,0,0,0-.54.29h0a.45.45,0,0,0,.16.6l6.24,2.8a.57.57,0,0,0,.67-.23Z"/><path class="cls-1" d="M50.38,115a.58.58,0,0,0-.29-.67l-6.4-2.87a.44.44,0,0,0-.55.29h0a.46.46,0,0,0,.15.61l6.4,2.87a.58.58,0,0,0,.69-.23Z"/><path class="cls-1" d="M51.17,113.31a.58.58,0,0,0-.29-.67l-6.43-2.89a.46.46,0,0,0-.56.3h0a.45.45,0,0,0,.16.61l6.43,2.89a.57.57,0,0,0,.69-.24Z"/><path class="cls-1" d="M52,111.63a.59.59,0,0,0-.29-.68l-6.46-2.9a.45.45,0,0,0-.56.3h0a.45.45,0,0,0,.15.61l6.47,2.9a.57.57,0,0,0,.69-.23Z"/><path class="cls-1" d="M52.83,110.07a.6.6,0,0,0-.33-.69l-7-3.16a.45.45,0,0,0-.59.28h0a.47.47,0,0,0,.18.63l7,3.16a.59.59,0,0,0,.73-.22Z"/><path class="cls-1" d="M53.68,108.37a.63.63,0,0,0-.34-.71l-7.05-3.19a.47.47,0,0,0-.6.28h0a.49.49,0,0,0,.19.64l7.06,3.19a.61.61,0,0,0,.74-.21Z"/><path class="cls-1" d="M54.47,106.67a.61.61,0,0,0-.33-.71l-7.09-3.21a.47.47,0,0,0-.6.29h0a.48.48,0,0,0,.19.64l7.09,3.21a.62.62,0,0,0,.74-.22Z"/><path class="cls-1" d="M55.23,105a.62.62,0,0,0-.34-.7L47.8,101a.46.46,0,0,0-.59.28h0a.47.47,0,0,0,.19.64l7.09,3.21a.6.6,0,0,0,.74-.22Z"/><path class="cls-1" d="M56,103.24a.61.61,0,0,0-.33-.71l-7.09-3.21a.47.47,0,0,0-.6.29h0a.49.49,0,0,0,.19.64l7.09,3.21a.62.62,0,0,0,.74-.22Z"/><path class="cls-1" d="M56.74,101.52a.64.64,0,0,0-.33-.71l-7.09-3.2a.46.46,0,0,0-.6.28h0a.47.47,0,0,0,.19.64L56,101.74a.6.6,0,0,0,.74-.22Z"/><path class="cls-1" d="M57.5,99.8a.62.62,0,0,0-.34-.7l-7.09-3.21a.47.47,0,0,0-.6.28h0a.5.5,0,0,0,.19.65l7.09,3.2a.62.62,0,0,0,.75-.22Z"/><path class="cls-1" d="M58.25,98.09a.64.64,0,0,0-.33-.71l-7.09-3.21a.47.47,0,0,0-.6.29h0a.48.48,0,0,0,.19.64l7.09,3.21a.61.61,0,0,0,.74-.22Z"/><path class="cls-1" d="M59,96.37a.62.62,0,0,0-.34-.7l-7.09-3.21a.48.48,0,0,0-.6.28h0a.48.48,0,0,0,.19.64l7.1,3.21a.61.61,0,0,0,.74-.22Z"/><path class="cls-1" d="M59.76,94.66a.61.61,0,0,0-.33-.71l-7.09-3.21a.47.47,0,0,0-.6.29h0a.48.48,0,0,0,.19.64L59,94.88a.61.61,0,0,0,.74-.22Z"/><path class="cls-1" d="M60.52,92.94a.62.62,0,0,0-.34-.7L53.09,89a.46.46,0,0,0-.59.28h0a.47.47,0,0,0,.19.64l7.09,3.21a.6.6,0,0,0,.74-.22Z"/><path class="cls-1" d="M61.28,91.23a.63.63,0,0,0-.34-.71l-7.09-3.21a.47.47,0,0,0-.6.29h0a.48.48,0,0,0,.19.64l7.09,3.21a.63.63,0,0,0,.75-.22Z"/><path class="cls-1" d="M62,89.51a.61.61,0,0,0-.33-.7L54.61,85.6a.47.47,0,0,0-.6.28h0a.47.47,0,0,0,.19.64l7.09,3.21a.6.6,0,0,0,.74-.22Z"/><path class="cls-1" d="M62.79,87.8a.63.63,0,0,0-.34-.71l-7.09-3.21a.47.47,0,0,0-.6.29h0a.49.49,0,0,0,.19.64L62.05,88a.63.63,0,0,0,.74-.22Z"/><path class="cls-1" d="M63.54,86.08a.63.63,0,0,0-.33-.71l-7.09-3.21a.48.48,0,0,0-.6.29h0a.48.48,0,0,0,.19.64L62.8,86.3a.6.6,0,0,0,.74-.22Z"/><path class="cls-1" d="M64.3,84.36a.62.62,0,0,0-.34-.7l-7.09-3.21a.46.46,0,0,0-.59.28h0a.48.48,0,0,0,.19.65l7.09,3.2a.61.61,0,0,0,.74-.22Z"/><path class="cls-1" d="M65.05,82.65a.62.62,0,0,0-.33-.71l-7.09-3.2A.46.46,0,0,0,57,79h0a.49.49,0,0,0,.19.64l7.09,3.21a.6.6,0,0,0,.74-.22Z"/><path class="cls-1" d="M65.81,80.93a.63.63,0,0,0-.33-.7L58.38,77a.46.46,0,0,0-.59.28h0A.49.49,0,0,0,58,78l7.09,3.2a.6.6,0,0,0,.74-.22Z"/><path class="cls-1" d="M66.57,79.22a.63.63,0,0,0-.34-.71L59.14,75.3a.46.46,0,0,0-.59.29h0a.47.47,0,0,0,.18.64l7.09,3.21a.62.62,0,0,0,.75-.22Z"/><path class="cls-1" d="M67.2,77.41a.63.63,0,0,0-.34-.71l-7.09-3.2a.46.46,0,0,0-.59.28h0a.47.47,0,0,0,.19.64l7.09,3.21a.6.6,0,0,0,.74-.22Z"/><path class="cls-1" d="M67.83,75.7A.64.64,0,0,0,67.5,75l-7.09-3.21a.47.47,0,0,0-.6.28h0a.48.48,0,0,0,.19.65l7.09,3.2a.61.61,0,0,0,.74-.21Z"/><path class="cls-1" d="M68.58,74a.61.61,0,0,0-.33-.71l-7.09-3.21a.47.47,0,0,0-.6.29h0a.48.48,0,0,0,.19.64l7.09,3.21a.6.6,0,0,0,.74-.22Z"/><path class="cls-1" d="M69.34,72.26a.63.63,0,0,0-.33-.7l-7.09-3.21a.47.47,0,0,0-.6.28h0a.48.48,0,0,0,.19.65l7.09,3.2a.6.6,0,0,0,.74-.22Z"/><path class="cls-1" d="M69.91,70.78a.63.63,0,0,0-.33-.71l-7.09-3.21a.47.47,0,0,0-.6.29h0a.48.48,0,0,0,.19.64L69.17,71a.61.61,0,0,0,.74-.22Z"/><path class="cls-1" d="M35.38,121.19a3.59,3.59,0,0,0,1.53.62c2.71-3.15,21.15-44.88,26.51-53.64.13-.2,6.42,2.66,6.42,2.66s6.5-16.42,9.87-21.76c3.58-5.68,9.69-17.71,15.68-17.66,9.25.09,18.36-4.27,19.24-13.77,1-10.94-7.6-14.35-16.15-11C96.36,7.49,94.87,9,93.35,9c-1.82.1-3.3-1.45-4.42-.54-2.73,2.23,2.06,4.68,2,4.88-2.78,7.82-1.11,14.25-1.61,15.05-3.1,5.06-14.16,15.48-20.61,16.91l-8.27,16C59.58,63.59,34.54,119.15,35.38,121.19Zm60.53-109c4.19-4.06,10.28-4.57,13.6-1.13s2.63,9.5-1.56,13.56-10.28,4.56-13.6,1.12S91.72,16.19,95.91,12.14Z"/><path class="cls-1" d="M3.31,3.55C9.17,1.49,13.63,7.49,17,10.39a13.39,13.39,0,0,0-1.19,7.73c1,9.48,10.17,13.73,19.42,13.52a8.67,8.67,0,0,1,1.88,0c3.94,2.13,10.14,9.77,13.75,14.41,3.43,4.39,8.82,15.53,9.53,16.93C63,68.05,88.69,118.43,91.84,125c.24.48,3.13-.83,3.18-.77,0-7.91-27.15-76.13-29-79.2a1.86,1.86,0,0,0-.87-.58,6.8,6.8,0,0,0-2.41.11c-6.38,1-17.88-10.45-21.42-16-.51-.8.91-8.87-1.81-15A15.55,15.55,0,0,0,32,6.23c-4.53-1.71-9.08-1.36-12.21.95C10.9.78,3.26-2.07.26,1.67-.82,3,1.69,4.12,3.31,3.55Zm17.75,7.84c3.27-3.48,9.37-3.05,13.61.95s5,10.06,1.74,13.54S27,28.93,22.8,24.93,17.78,14.86,21.06,11.39Z"/><path class="cls-2" d="M62.85,63.82A3.32,3.32,0,1,0,65.59,60,3.33,3.33,0,0,0,62.85,63.82Z"/><polygon class="cls-2" points="68.15 68.57 66.72 69.25 91.38 120.76 68.15 68.57"/><polygon class="cls-2" points="61.03 65.24 60.09 64.83 38.55 114.56 61.03 65.24"/><path class="cls-1" d="M67.77,65.92c-.54-.9-1.1-1.78-1.67-2.66-.28-.44-.59-.86-.83-1.33a8.87,8.87,0,0,1-.61-1.45.05.05,0,0,1,0-.08,0,0,0,0,1,.06,0,11.24,11.24,0,0,1,.95,1.26c.28.44.49.92.74,1.38l1.43,2.8a.07.07,0,0,1,0,.08A.07.07,0,0,1,67.77,65.92Z"/><path class="cls-1" d="M69.29,63.05a3.22,3.22,0,0,1-2.93,3.42,3.22,3.22,0,0,1-3.46-2.95,3.2,3.2,0,1,1,6.39-.47Zm-.07,0a3.07,3.07,0,0,0-6.12.46,3.09,3.09,0,0,0,1,2.09,3.05,3.05,0,0,0,2.22.75,3,3,0,0,0,2.87-3.3Z"/></g></g></svg>