<svg xmlns="http://www.w3.org/2000/svg" viewBox="0 0 121.82 120.49"><defs><style>.cls-1{fill:#414141;}.cls-2{fill:#fff;}</style></defs><g id="Layer_2" data-name="Layer 2"><g id="_ÎÓÈ_1" data-name="—ÎÓÈ_1"><path class="cls-1" d="M12.27,44.44c1.05-2.1,28.9-31,32.71-32.59.52-.21,1.4.52,1.77.89C56.3,22.1,56,44.37,50.5,50c-5.89,6-27.61,6.48-37.33-3C12.8,46.59,11.94,45.1,12.27,44.44Z"/><polygon class="cls-1" points="0 34.04 20.22 51.18 2.9 31.08 0 34.04"/><polygon class="cls-1" points="2.77 31.21 22.99 48.35 5.68 28.25 2.77 31.21"/><polygon class="cls-1" points="5.54 28.39 25.76 45.53 8.45 25.43 5.54 28.39"/><polygon class="cls-1" points="8.32 25.56 28.53 42.7 11.22 22.6 8.32 25.56"/><polygon class="cls-1" points="11.09 22.74 31.3 39.88 13.99 19.78 11.09 22.74"/><polygon class="cls-1" points="13.86 19.91 34.08 37.05 16.77 16.95 13.86 19.91"/><polygon class="cls-1" points="16.63 17.09 36.85 34.23 19.54 14.13 16.63 17.09"/><polygon class="cls-1" points="19.41 14.26 39.62 31.4 22.31 11.3 19.41 14.26"/><polygon class="cls-1" points="22.18 11.44 42.39 28.58 25.08 8.48 22.18 11.44"/><polygon class="cls-1" points="24.95 8.61 45.16 25.75 27.85 5.65 24.95 8.61"/><polygon class="cls-1" points="27.72 5.79 47.94 22.93 30.63 2.83 27.72 5.79"/><polygon class="cls-1" points="30.49 2.96 50.71 20.1 33.4 0 30.49 2.96"/><path class="cls-1" d="M44.68,48.92S120.26,122,121.8,120.44,49.12,44.38,49.12,44.38Z"/><path class="cls-2" d="M48.38,43.92c-.15,0,.11-1.57.38-4.06.14-1.24.26-2.72.32-4.37,0-.82.05-1.68.05-2.58s0-1.82-.07-2.75a27.66,27.66,0,0,0-2.47-9.27c-1-2.25-2.09-3.39-2-3.5s.39.17.89.69a13.08,13.08,0,0,1,1.76,2.46,23.67,23.67,0,0,1,2.86,9.53,25,25,0,0,1,.06,2.85c0,.91-.06,1.79-.12,2.63A40.91,40.91,0,0,1,49.5,40C49,42.47,48.51,44,48.38,43.92Z"/><path class="cls-1" d="M14.61,79.78c0-9.63,6.5-10.29,14.53-10.29H89.7c8,0,14.54.66,14.54,10.3,0,0-1.34,13.22-2.43,17.44-3.19,12.43-15,23.26-23,23.26H40c-8,0-20.32-12.8-23-23.26C15.94,93,14.61,79.78,14.61,79.78Z"/><path class="cls-2" d="M79.51,113.21c-.23-.33,1.66-1.86,4.47-4.38a33.46,33.46,0,0,0,4.41-4.8,40.08,40.08,0,0,0,4.07-6.86,78.51,78.51,0,0,0,4.88-13.9,30.18,30.18,0,0,0,.74-4.35c.09-1,0-1.6.2-1.68s.61.46.86,1.6a15.82,15.82,0,0,1,.1,4.74,49.36,49.36,0,0,1-4.31,14.74,33.82,33.82,0,0,1-4.57,7.26,26.91,26.91,0,0,1-5.17,4.75C81.93,112.58,79.7,113.5,79.51,113.21Z"/></g></g></svg>